<?xml version="1.0" encoding="UTF-8"?>
<!DOCTYPE svg PUBLIC "-//W3C//DTD SVG 1.1//EN" "http://www.w3.org/Graphics/SVG/1.1/DTD/svg11.dtd">
<!-- Creator: CorelDRAW X7 -->
<svg xmlns="http://www.w3.org/2000/svg" xml:space="preserve" width="16.9332mm" height="16.9332mm" version="1.1" style="shape-rendering:geometricPrecision; text-rendering:geometricPrecision; image-rendering:optimizeQuality; fill-rule:evenodd; clip-rule:evenodd"
viewBox="0 0 234 234"
 xmlns:xlink="http://www.w3.org/1999/xlink">
 <defs>
  <style type="text/css">
   <![CDATA[
    .fil0 {fill:none}
    .fil2 {fill:black}
    .fil1 {fill:#F5CB25}
   ]]>
  </style>
 </defs>
 <g id="Layer_x0020_1">
  <metadata id="CorelCorpID_0Corel-Layer"/>
  <g id="_2065208587760">
   <rect class="fil0" width="234" height="234"/>
   <circle class="fil1" cx="175" cy="96" r="52"/>
   <path class="fil2" d="M98 75c0,5 10,7 10,-5 1,1 4,5 6,5 0,1 1,1 1,2l12 10c0,1 1,1 1,2 12,9 8,8 5,28l-6 35c-2,11 -1,15 -14,12l-39 -7c-4,0 -7,-1 -12,-1 -3,-1 -8,-1 -9,-4 -3,-4 -1,-6 0,-10 1,-6 8,-54 10,-57 1,-3 5,-4 8,-5l28 -11c0,2 -1,4 -1,6l0 0zm-4 64c0,-2 2,-15 2,-17 3,0 6,3 6,7 0,5 -4,9 -8,10zm-2 -28c-2,0 -4,-3 -4,-6 0,-3 3,-7 7,-7 0,1 -3,12 -3,13zm-10 -6c0,6 5,10 9,13 0,1 -3,19 -3,20 -1,1 -6,-2 -7,-3 -4,-4 -7,0 -5,3 0,1 0,0 1,1 1,1 2,2 3,3 1,0 5,2 7,2 -1,1 -1,4 -1,5 0,2 3,3 5,1 0,0 1,-1 1,-1 0,-1 0,-3 0,-4 13,0 20,-14 14,-24 -3,-3 -5,-4 -8,-6 0,0 3,-15 3,-16 3,1 3,4 7,4 1,0 2,-1 2,-3 0,-3 -6,-7 -8,-7 0,-2 0,-3 0,-5 0,-2 -4,-4 -6,0 -1,3 1,4 -2,4 -2,1 -3,1 -5,2 -3,2 -7,7 -7,11l0 0zm39 -36c1,0 1,-1 2,-1 3,-3 6,-3 9,-2l30 12c6,3 6,3 7,10l4 21c3,17 6,34 9,51 1,3 2,9 -3,11 -3,1 -5,1 -7,2 -5,1 -9,2 -15,3l-28 5c-2,0 -13,2 -14,2 -3,-1 -5,-2 -6,-4 -1,-2 -1,-5 -1,-6 7,0 13,4 21,-2 2,-2 4,-4 5,-7 1,-3 3,-17 4,-22l6 -37c2,-6 2,-11 -2,-16 -1,-1 -3,-2 -4,-3l-12 -11c-1,-1 -1,-1 -2,-2l-3 -3c-1,0 0,0 0,-1l0 0zm-78 78c0,9 5,15 13,16l42 8c2,6 1,9 4,14 3,4 8,6 14,6 2,0 62,-10 65,-11 6,-2 10,-8 10,-14 0,-5 0,-7 -1,-11 -3,-21 -7,-42 -11,-63 -1,-3 -1,-6 -2,-9 -1,-3 -1,-5 -3,-7 -3,-4 -9,-6 -13,-8 -5,-2 -27,-11 -31,-12 0,-1 -1,-2 -1,-4 0,-4 0,-9 -5,-9 -2,0 -2,0 -3,1 -3,3 0,8 0,14 -1,1 -3,2 -4,3 -1,0 -2,2 -3,2 -1,0 -3,-2 -4,-2 0,-4 2,-10 2,-14 0,-2 -2,-4 -4,-4 -4,0 -5,2 -5,5 -1,3 -1,6 -2,9 0,3 1,1 -6,4 -3,1 -6,2 -8,3l-23 9c-10,4 -10,11 -12,20l-8 45c0,1 -1,3 -1,4 0,2 0,3 0,5l0 0z"/>
  </g>
 </g>
</svg>
