<?xml version="1.0" encoding="UTF-8"?>
<!DOCTYPE svg PUBLIC "-//W3C//DTD SVG 1.1//EN" "http://www.w3.org/Graphics/SVG/1.1/DTD/svg11.dtd">
<!-- Creator: CorelDRAW X7 -->
<svg xmlns="http://www.w3.org/2000/svg" xml:space="preserve" width="16.9332mm" height="16.9332mm" version="1.1" style="shape-rendering:geometricPrecision; text-rendering:geometricPrecision; image-rendering:optimizeQuality; fill-rule:evenodd; clip-rule:evenodd"
viewBox="0 0 172 172"
 xmlns:xlink="http://www.w3.org/1999/xlink">
 <defs>
  <style type="text/css">
   <![CDATA[
    .fil0 {fill:none}
    .fil1 {fill:#F5CB25}
    .fil2 {fill:black;fill-rule:nonzero}
   ]]>
  </style>
 </defs>
 <g id="Layer_x0020_1">
  <metadata id="CorelCorpID_0Corel-Layer"/>
  <g id="_2065209259296">
   <rect class="fil0" width="172" height="172"/>
   <circle class="fil1" cx="125" cy="70" r="38"/>
   <path class="fil2" d="M41 47l11 0c0,0 1,0 1,0 0,0 0,0 1,0l0 0c0,-1 0,-1 0,-1 0,0 1,-1 1,-1l0 -11 -14 13 0 0zm78 68l0 14c1,-1 2,-1 2,-2l0 0c2,-1 4,-2 6,-2 2,0 4,1 6,2 0,1 1,1 2,2l0 -14c-1,0 -1,0 -2,1 -1,1 -1,2 -3,2 -5,2 -7,0 -9,-2 0,0 -1,-1 -2,-1l0 0zm28 -27c0,-1 1,-1 1,-2 0,-2 -1,-2 -2,-3 -2,-1 -5,-3 -5,-7 0,-3 -2,-3 -4,-3 -2,0 -5,1 -7,-2 -3,-3 -4,-2 -5,0 -2,1 -3,2 -6,2 -1,0 -2,0 -2,0 -1,0 -2,0 -3,0 -1,1 -1,2 -1,3 0,1 0,3 -2,5 -1,1 -2,1 -3,2 0,0 -1,0 -1,0 -1,1 -1,1 -1,2 0,0 0,1 0,2 1,0 1,0 1,0 0,1 0,1 1,2 0,1 0,2 0,3l0 0c0,1 -1,2 -1,3 -1,2 -2,3 0,4l0 0 1 1 0 0c3,1 4,2 5,7 0,3 2,2 4,2 1,0 2,0 3,0l0 0c2,1 4,2 5,3 0,1 1,1 3,1 0,0 0,0 0,0 1,0 1,-1 1,-1 1,-1 1,-1 1,-1l0 0 1 0 0 0c2,-2 4,-2 6,-2 1,0 2,1 3,0 1,-1 1,-2 1,-2 0,-1 0,-1 0,-2 0,-1 1,-2 1,-2l0 0c1,-1 1,-2 2,-2 0,0 1,-1 2,-1l0 0c1,-1 3,-2 1,-5 -2,-4 -1,-5 0,-7l0 0 0 0zm-33 29c0,-1 0,-2 0,-2 0,0 -1,-1 -1,-1 -1,0 -2,0 -3,-1 -2,-2 -2,-4 -2,-5 0,-1 -1,-2 -2,-3 0,0 0,0 -1,-1 -1,0 -1,0 -2,-1 -1,-2 -2,-3 -2,-5 -1,-1 0,-3 1,-5l0 0 0 0 0 0c0,-1 0,-1 0,-2 0,0 0,0 0,0l0 0c0,-1 0,-1 0,-1 -1,-1 -1,-2 -1,-3 0,0 0,-1 0,-2 0,-2 0,-4 1,-5 1,-1 3,-2 4,-2l0 0c1,-1 1,-2 2,-3l0 0 0 -1 0 0c0,0 0,-1 0,-2 1,-1 1,-1 2,-2l0 0c3,-3 6,-2 8,-2 0,0 1,0 1,0 1,0 1,-1 2,-1l0 0c0,-1 1,-1 1,-1l0 0c1,-1 1,-1 2,-2 1,0 2,0 3,0 3,0 5,1 6,3 1,0 1,1 2,1l0 0c0,0 1,0 2,0 2,-1 4,-1 7,2l0 0c2,1 2,3 2,5l0 0c0,1 1,2 1,2 1,1 1,1 2,1l0 0c0,0 1,0 2,2 1,0 1,1 2,2 0,1 0,1 0,2 1,3 0,5 -1,6 0,1 -1,1 0,3 1,2 2,4 1,5 0,2 -1,4 -2,5 -1,1 -2,1 -2,1 -1,1 -1,1 -2,1 0,1 -1,2 -1,3 0,0 0,0 0,1 -1,4 -4,5 -5,5l0 0 -1 1 0 8c0,1 0,1 0,2 0,2 1,6 0,7 -2,4 -5,3 -8,1 -1,0 -2,-1 -3,-1 -1,-1 -2,-2 -2,-2 0,0 -1,1 -2,2l0 0c-1,0 -2,1 -3,2 -3,1 -6,2 -8,-2 -1,-1 0,-10 0,-15l0 0zm-40 -74l0 4c1,0 2,0 3,1 2,0 3,1 2,3 0,1 -1,2 -3,2 -1,0 -2,0 -2,0 -1,0 -2,0 -3,-1l0 0c-2,-1 -2,-3 -2,-5l0 -2c-1,-5 -1,-8 7,-8 1,0 3,0 6,0 9,0 27,0 28,0 5,1 5,5 5,8l0 1 0 0c0,6 -2,7 -8,7 -1,0 -2,0 -4,0 -2,0 -4,0 -6,0l0 0 -11 0 0 0 0 0 0 0c-1,0 -2,0 -2,0l0 0c0,0 0,0 -1,-1l0 0c-2,-1 -1,-3 1,-4 1,-1 18,-1 24,-1l1 0c0,-1 0,-1 0,-2 0,-1 0,-2 0,-2 0,-1 0,0 0,0l0 0 -1 0 0 0c-7,0 -15,0 -24,0 -3,0 -6,0 -10,0l0 0zm62 53c0,-1 1,-2 1,-3l0 0 0 0c1,-3 0,-6 -2,-8 -1,-2 -4,-3 -6,-4l0 0 0 0 -1 0c-2,0 -5,0 -7,2 -2,2 -4,4 -4,6l0 0 0 1c-1,3 0,6 2,8 1,1 2,2 3,2 1,1 3,1 4,2 2,0 5,-1 7,-3 2,-1 2,-2 3,-3l0 0 0 0zm-11 -20l0 0c1,0 1,-1 2,-1 2,1 4,1 6,2 2,0 3,1 4,2l0 0 1 1 0 0 0 0 0 0 0 0c3,3 5,7 5,11 0,4 -2,8 -4,11 -2,1 -3,3 -5,3l0 0c-2,1 -3,2 -6,2 -2,0 -4,0 -6,-1 -2,0 -4,-2 -5,-3l0 0c-3,-2 -4,-4 -5,-7 -1,-3 -1,-5 0,-8 0,-3 1,-5 3,-7 2,-2 4,-4 7,-5 2,0 3,0 3,0l0 0 0 0zm-79 34c0,-1 -1,-1 -1,-2 0,-2 2,-3 4,-3 0,0 1,0 1,0l0 0 1 0c1,0 4,0 8,0 12,0 34,0 35,0 1,0 1,1 2,1 0,1 0,1 0,2 0,0 0,1 0,1l0 0c-1,1 -1,1 -2,2 -1,0 -15,0 -23,0 -1,0 -2,0 -3,0l0 0 -20 0 0 0 0 0c-1,0 -1,-1 -2,-1l0 0zm0 -28c0,-1 1,-1 1,-1 2,-1 27,-1 40,-1 3,0 5,0 6,0l0 0 1 0c0,0 1,1 1,1 1,1 1,1 1,2 0,0 0,1 0,1 0,1 -1,1 -2,2 -1,0 -22,0 -33,0 -3,0 -4,0 -6,0 -1,0 -2,0 -2,0 -3,0 -7,0 -7,-2l0 0c-1,-1 -1,-2 0,-2l0 0zm0 -9c0,-1 -1,-1 -1,-2 0,-1 1,-2 1,-2 1,-1 2,-1 2,-1l0 0 0 0 46 0 0 0 0 0c1,0 1,1 2,1l0 0c0,0 0,1 0,1 0,1 0,1 0,2l0 0c-1,1 -1,1 -2,1 -1,1 -15,1 -23,0 -1,0 -2,0 -3,0l0 0 -20 0 0 0 0 0c-1,0 -1,0 -2,0l0 0zm6 25c-3,0 -6,1 -7,-2 0,-2 1,-3 3,-3 0,0 1,0 2,0l0 0 0 0 24 0 0 0 19 0 1 0c0,0 1,0 1,1l0 0c1,0 1,1 1,1 0,1 0,1 0,2l0 0c0,0 -1,1 -1,1 -1,0 -23,0 -34,0l-6 0 0 0c-1,0 -2,0 -3,0l0 0zm-7 28c0,-2 2,-2 3,-2 0,-1 1,-1 2,-1l0 0 21 0 0 0 0 0c0,0 1,1 1,1 1,0 1,1 2,2l0 0 0 0 0 0c0,1 -1,1 -1,2 0,0 -1,1 -2,1l0 0 0 0 0 0 0 0 -23 0 0 0c0,0 -1,0 -2,-1 0,0 -1,-1 -1,-2l0 0zm11 -101c0,0 0,0 0,0 1,0 1,0 1,0 0,0 1,0 1,0 0,0 0,0 0,0 0,0 0,0 1,0l0 0 0 0 0 0c1,0 1,0 2,0 4,0 15,0 27,0l0 0 1 0c11,0 22,0 31,0l0 0 0 0 0 0c2,0 3,0 4,1 1,0 2,0 3,1l0 0 0 1c1,1 2,2 2,3 1,1 1,2 1,3l0 0 0 1 0 0 0 24c0,1 0,1 -1,2l0 0 0 0c0,0 -1,1 -2,1 0,0 -1,-1 -2,-1 0,-1 0,-1 0,-2l0 -24 0 0 0 -1c0,0 -1,-1 -1,-1l0 0c0,0 0,-1 -1,-1l0 0c0,-1 -1,-1 -1,-1l0 0c0,0 -1,0 -2,0l0 0 0 0 0 -1c-9,1 -21,0 -32,0l0 0 0 0 0 0 -1 0c-11,0 -22,0 -26,0l-1 0 0 15c0,1 0,2 0,3 -1,1 -2,2 -2,3l0 0 0 0c-1,0 -2,1 -3,1 -1,1 -2,1 -3,1l-15 0 0 85c0,0 0,1 1,1l0 0c0,1 0,1 0,2l0 0c1,0 1,0 2,1 0,0 1,0 1,0l79 0c1,0 2,0 2,0 0,-1 1,-1 1,-1l0 0c1,-1 1,-1 1,-2l0 0c0,0 1,-1 1,-1l0 -4c0,-1 0,-2 0,-2 1,-1 2,-1 2,-1 1,0 2,0 2,1l0 0c1,0 1,1 1,2l0 4c0,1 0,2 -1,3 0,2 -1,3 -2,4l0 0 0 0c-1,1 -2,1 -3,2 -1,0 -2,1 -4,1l-79 0c-1,0 -2,-1 -3,-1 -1,-1 -3,-1 -4,-2l0 0 0 0c0,-1 -1,-2 -2,-4 0,-1 0,-2 0,-3l0 -86 0 -1 0 0c0,0 0,-1 0,-1l0 0 0 0c0,-1 0,-1 0,-1 0,0 1,-1 1,-1l0 0 20 -21c1,-1 1,-1 2,-1 0,-1 0,-1 1,-1l0 0z"/>
  </g>
 </g>
</svg>
