<?xml version="1.0" encoding="UTF-8"?>
<!DOCTYPE svg PUBLIC "-//W3C//DTD SVG 1.1//EN" "http://www.w3.org/Graphics/SVG/1.1/DTD/svg11.dtd">
<!-- Creator: CorelDRAW X7 -->
<svg xmlns="http://www.w3.org/2000/svg" xml:space="preserve" width="16.9332mm" height="16.9332mm" version="1.1" style="shape-rendering:geometricPrecision; text-rendering:geometricPrecision; image-rendering:optimizeQuality; fill-rule:evenodd; clip-rule:evenodd"
viewBox="0 0 134 134"
 xmlns:xlink="http://www.w3.org/1999/xlink">
 <defs>
  <style type="text/css">
   <![CDATA[
    .fil0 {fill:none}
    .fil2 {fill:black}
    .fil1 {fill:#F5CB25}
   ]]>
  </style>
 </defs>
 <g id="Layer_x0020_1">
  <metadata id="CorelCorpID_0Corel-Layer"/>
  <g id="_2065209263648">
   <rect class="fil0" width="134" height="134"/>
   <circle class="fil1" cx="94" cy="55" r="30"/>
   <path class="fil2" d="M112 90c0,1 -1,1 -1,1 -1,0 -1,0 -2,-1l0 0c0,0 0,-1 0,-1l0 0 0 -14 -22 10 0 22 22 -9 0 -3c0,-1 0,-1 0,-2 1,0 1,0 2,0 0,0 1,0 1,0 0,1 1,1 1,2l0 4c0,1 0,1 -1,1 0,1 0,1 -1,1l0 0 -25 12 0 0c0,0 0,0 0,0 0,0 -1,0 -1,0l0 0c0,0 0,0 0,0l0 0 0 0 0 0 0 0 0 0c0,0 0,0 -1,0 0,0 0,0 0,0 0,0 0,0 0,0l-15 -7 0 0c0,0 -1,-1 -1,-1l0 0c0,-1 0,-1 0,-2l0 0c0,0 1,-1 1,-1 1,0 1,0 2,0l8 4 -16 -25 0 0 0 0 0 0c-1,0 -1,-1 -1,-1 1,-1 1,-1 1,-2l0 0 0 0 0 0c1,0 1,0 2,0 0,0 1,0 1,1l17 25 0 -19 -22 -10 0 23 4 2 0 0c1,0 1,0 1,1 1,0 1,1 0,1l0 0c0,1 0,1 -1,2 0,0 -1,0 -1,0l0 0 -6 -3 0 0c0,0 0,0 0,-1l0 0c-1,0 -1,0 -1,-1l0 -27c0,0 0,0 0,0l0 0c0,0 0,0 0,-1l0 0 0 0 0 0 0 0 0 0 1 0c0,0 0,0 0,0l0 0c0,0 0,0 0,0 0,0 0,0 0,0l0 0c0,0 0,-1 0,-1 0,0 0,0 0,0l0 0 3 -1 -5 -2 -5 3 0 25c0,1 0,1 -1,2 0,0 -1,0 -1,0l0 0 0 0c-1,0 -1,0 -2,0 0,-1 0,-1 0,-2l0 -25 -9 -4 0 17c0,1 0,1 0,2l0 0c-1,0 -1,0 -2,0 0,0 -1,0 -1,0l0 0c-1,-1 -1,-1 -1,-2l0 -19 -9 -4 0 23 19 8 0 0c0,0 1,1 1,1 0,1 0,1 0,2l0 0c0,0 -1,0 -1,1 -1,0 -1,0 -2,0l-19 -9c-1,0 -1,-1 -1,-1 -1,0 -1,-1 -1,-1l0 -27 0 0c0,0 0,0 0,0 0,-1 0,-1 0,-1l0 0 1 0 0 0 0 0 0 0c0,0 0,0 0,0 0,0 0,-1 0,-1l0 0 0 0c0,0 0,0 1,0l0 0 24 -11 0 -9c0,0 0,-1 0,-1 0,0 0,0 0,0l0 0 0 0 0 0c0,0 0,0 0,0 0,-1 0,-1 1,-1l0 0c0,0 0,0 0,0 0,0 0,0 0,0 0,0 0,0 0,0 0,0 0,0 0,0l0 0 10 -5c1,0 1,0 2,0l0 0c1,0 1,1 1,1l0 0 0 0c0,1 0,1 0,2l0 0c0,0 0,1 -1,1l0 0 -6 3 8 3 18 -8 1 0 0 0c0,-1 0,-1 1,0 0,0 1,0 1,1l0 0 0 0c0,0 0,1 0,1 0,1 0,1 -1,1l-15 7 8 4 20 -9 -20 -9 -10 4 0 0 0 0c0,0 -1,0 -1,0 -1,0 -1,-1 -1,-1l0 0 0 0c-1,-1 -1,-1 0,-2 0,0 0,-1 1,-1l10 -5 0 0c0,0 0,0 1,0 0,0 0,0 0,0l0 0 26 12 0 0c0,0 0,0 0,0l0 0c1,0 1,0 1,0l0 0 0 0 0 0 0 0 0 0c0,0 0,0 0,0l0 0c0,1 0,1 0,1 0,0 0,0 0,0l0 0c0,0 0,0 0,0l0 0c0,0 0,0 0,0l0 0c0,0 0,0 0,0l0 1 0 0c0,0 0,0 0,0l0 0c0,0 0,0 0,0l0 0c0,0 0,0 0,0l0 0c0,0 0,0 0,0l0 0 0 1 0 0c0,0 0,0 0,0l0 0c0,0 0,0 0,0l0 0 0 0 0 0 0 0 0 0c0,0 0,0 0,0l0 0c-1,0 -1,0 -1,0l0 0 0 1 0 0 -24 10 0 23 21 -10 0 -18c0,-1 1,-1 1,-1l0 0c0,-1 1,-1 1,-1 1,0 1,0 2,1l0 0c0,0 0,0 0,1l0 20c0,0 0,0 0,1 0,0 0,0 -1,1l-3 1 13 5 0 0c1,0 1,0 1,0 0,1 0,1 0,1l0 0 0 0c0,0 0,0 0,0 0,0 0,0 0,0l0 0c0,0 0,0 0,0l1 0 0 0c0,1 0,1 0,1 0,0 0,0 0,0 0,0 0,0 0,0l0 17c0,0 -1,1 -1,1l0 0 0 0zm0 -19l0 0 0 0zm-28 42l0 0 0 0zm-55 -56l20 9 2 -1 -3 -1c0,-1 0,-1 -1,-1l0 0c0,-1 0,-1 0,-1l0 -13 -18 8 0 0zm22 -19l0 22 22 10 0 -23 -6 -2 -16 -7 0 0zm13 34l21 9 20 -9 -12 -5 -18 8 0 0 0 0 0 0c0,0 0,0 0,0l0 0c0,0 0,0 0,0l0 0 0 0 0 0c0,0 -1,0 -1,0l0 0c0,0 0,0 0,0l0 0 0 0 -8 -4 -2 1 0 0z"/>
  </g>
 </g>
</svg>
