<?xml version="1.0" encoding="UTF-8"?>
<!DOCTYPE svg PUBLIC "-//W3C//DTD SVG 1.1//EN" "http://www.w3.org/Graphics/SVG/1.1/DTD/svg11.dtd">
<!-- Creator: CorelDRAW X7 -->
<svg xmlns="http://www.w3.org/2000/svg" xml:space="preserve" width="16.9332mm" height="16.9332mm" version="1.1" style="shape-rendering:geometricPrecision; text-rendering:geometricPrecision; image-rendering:optimizeQuality; fill-rule:evenodd; clip-rule:evenodd"
viewBox="0 0 109 109"
 xmlns:xlink="http://www.w3.org/1999/xlink">
 <defs>
  <style type="text/css">
   <![CDATA[
    .fil0 {fill:none}
    .fil2 {fill:black}
    .fil1 {fill:#F5CB25}
   ]]>
  </style>
 </defs>
 <g id="Layer_x0020_1">
  <metadata id="CorelCorpID_0Corel-Layer"/>
  <g id="_2065208579248">
   <rect class="fil0" width="109" height="109"/>
   <circle class="fil1" cx="76" cy="44" r="24"/>
   <path class="fil2" d="M63 72l-5 0 -1 0 0 -1 0 -2 0 0 0 -1 9 -9 1 -1 0 0c2,0 3,0 5,0 4,-1 8,-3 10,-6 3,-3 4,-7 4,-12 0,-1 0,-3 0,-4 -1,-1 -3,-1 -4,-1 -5,0 -9,2 -12,5 -3,2 -5,6 -6,10 0,2 0,3 0,5l0 0 -1 0 -5 5 -1 2 0 -3 0 -13 0 -1 0 0c1,-1 2,-2 3,-3 3,-4 4,-8 3,-12 0,-4 -2,-8 -5,-11 -1,-1 -3,-2 -4,-3 -1,1 -2,2 -3,3 -3,3 -5,7 -5,11 -1,4 0,8 3,12 1,1 2,2 3,3l0 0 0 1 0 13 0 3 -2 -2 -4 -5 -1 0 0 0c0,-2 0,-3 0,-5 -1,-4 -3,-8 -6,-10 -3,-3 -7,-5 -12,-5 -1,0 -3,0 -4,1 -1,1 -1,3 -1,4 0,5 2,9 5,12 2,3 6,5 10,6 2,0 3,0 4,0l1 0 0 1 10 9 0 1 0 0 0 2 0 1 -1 0 -5 0 0 0 -1 -1c-1,-1 -2,-2 -3,-2 -4,-3 -8,-4 -12,-4 -4,1 -8,2 -11,6 -1,1 -2,2 -3,3 1,1 2,2 3,3 3,4 7,6 11,6 4,0 8,-1 12,-4 1,0 2,-1 3,-2l1 -1 0 0 5 0 1 0 0 1 0 16 5 0 0 -16 0 -1 1 0 5 0 0 0 1 1c1,1 2,2 3,2 3,3 7,4 11,4 4,0 8,-2 12,-6 1,-1 2,-2 3,-3 -1,-1 -2,-2 -3,-3 -4,-4 -8,-5 -12,-6 -4,0 -8,1 -11,4 -1,0 -2,1 -3,2l-1 1 0 0zm9 -28l0 0c1,-1 2,-2 4,-3 1,0 3,-1 5,-1l1 0 0 1c0,2 -1,4 -2,5 0,1 -1,3 -2,4l0 0c-1,1 -2,2 -4,2 -1,1 -3,1 -5,2l-1 0 0 -1c0,-2 1,-4 1,-5 1,-2 2,-3 3,-4zm-41 6l0 0 0 0c-1,-1 -2,-3 -3,-4 0,-1 -1,-3 -1,-5l0 -1 1 0c2,0 4,1 5,1 1,1 3,2 4,3l0 0c1,1 2,2 2,4 1,1 1,3 2,5l0 1 -1 0c-2,-1 -4,-1 -5,-2 -2,0 -3,-1 -4,-2zm1 28c-2,0 -3,0 -5,-1 -1,0 -3,-1 -4,-2l-1 -1 1 -1c1,-1 3,-2 4,-2 2,-1 3,-1 5,-1 1,0 3,0 4,1 2,0 3,1 5,2l0 1 0 1c-2,1 -3,2 -5,2 -1,1 -3,1 -4,1zm22 -38c-2,-1 -2,-2 -3,-4 0,-1 -1,-3 -1,-4 0,-2 1,-3 1,-5 1,-1 1,-3 3,-4l0 -1 1 1c1,1 2,3 3,4 0,2 1,3 1,5 0,1 -1,3 -1,4 -1,2 -2,3 -3,4l-1 1 0 -1zm23 38c-1,0 -3,0 -5,-1 -1,0 -2,-1 -4,-2l-1 -1 1 -1c2,-1 3,-2 4,-2 2,-1 4,-1 5,-1 1,0 3,0 5,1 1,0 2,1 4,2l1 1 -1 1c-2,1 -3,2 -4,2 -2,1 -4,1 -5,1z"/>
  </g>
 </g>
</svg>
