<?xml version="1.0" encoding="UTF-8"?>
<!DOCTYPE svg PUBLIC "-//W3C//DTD SVG 1.1//EN" "http://www.w3.org/Graphics/SVG/1.1/DTD/svg11.dtd">
<!-- Creator: CorelDRAW X7 -->
<svg xmlns="http://www.w3.org/2000/svg" xml:space="preserve" width="16.9332mm" height="16.9332mm" version="1.1" style="shape-rendering:geometricPrecision; text-rendering:geometricPrecision; image-rendering:optimizeQuality; fill-rule:evenodd; clip-rule:evenodd"
viewBox="0 0 94 94"
 xmlns:xlink="http://www.w3.org/1999/xlink">
 <defs>
  <style type="text/css">
   <![CDATA[
    .fil0 {fill:none}
    .fil2 {fill:black}
    .fil1 {fill:#F5CB25}
   ]]>
  </style>
 </defs>
 <g id="Layer_x0020_1">
  <metadata id="CorelCorpID_0Corel-Layer"/>
  <g id="_2065208580944">
   <rect class="fil0" width="94.0176" height="94.0176"/>
   <circle class="fil1" cx="69" cy="38" r="21"/>
   <g>
    <path class="fil2" d="M36 46l-12 0c0,0 -1,0 -1,-1l-6 -9c0,-1 0,-1 0,-2l6 -10c0,0 1,-1 1,-1l12 0c0,0 1,1 1,1l5 10c1,1 1,1 0,2l-5 9c0,1 -1,1 -1,1zm-11 -3l10 0 5 -8 -5 -9 -10 0 -5 9 5 8z"/>
    <path class="fil2" d="M45 56l-4 0c0,0 -1,0 -1,-1l-6 -10c0,0 0,-1 0,-1l6 -10c0,0 1,-1 1,-1l12 0c0,0 1,1 1,1l6 10c0,0 0,1 0,1l-4 7c0,0 -1,0 -1,-1 0,0 -1,-1 -1,-1l3 -5 -5 -9 -10 0 -5 9 5 8 3 0c0,1 0,2 0,3z"/>
    <path class="fil2" d="M70 46l-12 0c0,0 -1,0 -1,-1l-6 -9c0,-1 0,-1 0,-2l6 -10c0,0 1,-1 1,-1l12 0c0,0 1,1 1,1l6 10c0,1 0,1 0,2l-6 9c0,1 -1,1 -1,1zm-11 -3l10 0 5 -8 -5 -9 -10 0 -5 9 5 8z"/>
    <path class="fil2" d="M53 36l-12 0c0,0 -1,0 -1,0l-6 -11c0,0 0,0 0,-1l6 -10c0,0 1,-1 1,-1l12 0c0,0 1,1 1,1l6 10c0,1 0,1 0,1l-6 11c0,0 -1,0 -1,0zm-11 -3l10 0 5 -8 -5 -9 -10 0 -5 9 5 8z"/>
    <path class="fil2" d="M51 76l-10 0c0,0 -1,0 -1,-1l-6 -10c0,0 0,-1 0,-1l6 -10c0,-1 1,-1 1,-1l4 0c0,1 0,2 0,3l-3 0 -5 9 5 8 9 0c-1,1 0,2 0,3zm3 -16l0 0c0,0 1,-1 1,-1 0,0 1,-1 1,-1l0 0c0,0 -1,1 -1,1l0 0 0 0 0 0 0 0 0 0 0 0 0 0 0 0 0 0 0 0 0 0 0 0 0 1 0 0 0 0 0 0 0 0 0 0 0 0 0 0 0 0 0 0 0 0 0 0 0 0 0 0 0 0 0 0 0 0 0 0 0 0 0 0 0 0 0 0 0 0 -1 0 0 0 0 0 0 0 0 0 0 0 0 0 0 0 0 0 0 0 0 0 0 0 0 0 0 0 0 0 0 0 0 0 0 0 0 0 0 0zm2 -2l0 0 0 0 0 0z"/>
    <path class="fil2" d="M36 66l-12 0c0,0 -1,0 -1,-1l-6 -10c0,0 0,-1 0,-1l6 -10c0,-1 1,-1 1,-1l12 0c0,0 1,0 1,1l5 10c1,0 1,1 0,1l-5 10c0,1 -1,1 -1,1zm-11 -3l10 0 5 -8 -5 -9 -10 0 -5 9 5 8z"/>
    <path class="fil2" d="M66 78c-2,0 -4,-1 -5,-2 0,0 1,-1 0,-2 3,1 6,2 8,0 2,-3 1,-6 0,-8 1,0 2,0 3,-1 2,3 2,7 -1,11 -1,1 -3,2 -5,2l0 0zm-14 -10c-1,-1 -1,-2 -1,-3 0,-2 1,-5 3,-7 2,-1 4,-2 7,-2 1,0 2,0 3,0l-8 2 2 1c-1,0 -1,1 -2,2 0,0 -1,1 -1,1l-2 -2 -1 8z"/>
    <path class="fil2" d="M74 80c0,0 0,0 -1,0l-5 -3c0,-1 -1,-1 0,-2 0,-1 1,-1 2,-1 -1,0 0,-1 0,-2 1,0 2,0 2,1l3 5c1,1 1,1 0,2 0,0 0,0 -1,0l0 0z"/>
    <path class="fil2" d="M52 68c0,-1 -1,-1 -1,-1 0,-3 1,-6 3,-9 2,-2 5,-3 9,-2 0,0 0,0 0,0l-7 2 2 1c-1,0 -1,1 -2,2 0,0 -1,1 -1,1l-2 -2 -1 8 0 0zm4 -4c0,-1 1,-1 2,-2 0,0 1,-1 1,-2l3 2c0,1 -1,2 -2,2 -1,1 -2,2 -3,2l-1 -2z"/>
    <path class="fil2" d="M52 68c-1,-1 -1,-2 -1,-3 0,-2 1,-5 3,-7l0 0c2,-1 4,-2 7,-2 1,0 2,0 3,0l-8 2 2 1c-1,0 -1,1 -2,2l0 0c0,0 -1,1 -1,1l-2 -2 -1 8zm6 0c1,-1 2,-2 3,-2 1,-1 2,-2 2,-3l3 1c0,0 0,0 0,0 -1,2 -2,3 -3,4 -1,1 -2,1 -3,2 0,0 0,0 0,0l-2 -2 0 0z"/>
    <path class="fil2" d="M52 68c-1,-1 -1,-2 -1,-3 0,-2 1,-5 3,-7l0 0c2,-1 4,-2 7,-2 1,0 2,0 3,0l-8 2 2 1c-1,0 -1,1 -2,2l0 0c0,0 -1,1 -1,1l-2 -2 -1 8zm9 3c1,0 2,-1 3,-2 2,-1 2,-2 3,-4 0,0 0,0 1,0l0 0 0 0c0,1 1,1 2,1 -1,1 -2,3 -4,5 -1,1 -3,3 -5,4 1,-1 0,-2 0,-3l0 0 0 0c0,0 0,0 0,-1l0 0z"/>
    <path class="fil2" d="M56 81c-2,0 -4,-1 -5,-2 -2,-2 -2,-5 -2,-8l3 -10c1,0 2,-1 3,-2l6 10c1,1 1,1 1,2 0,0 0,0 0,0 1,3 1,6 -1,8 -2,1 -3,2 -5,2zm-2 -17l-2 8c0,0 0,0 0,0 0,2 0,4 1,5 2,1 4,1 6,0 1,-1 1,-3 0,-5l2 0 -2 0c0,0 0,-1 0,-1 -1,0 -1,0 -1,0l-4 -7z"/>
    <path class="fil2" d="M69 67c0,0 -1,0 -2,0 0,0 0,0 0,0 -1,-1 -2,-1 -2,-2l-10 -6c1,-1 1,-2 2,-3l10 -2c2,-1 5,-1 7,1 3,3 3,7 0,10 -1,1 -3,2 -5,2l0 0zm-1 -3c1,1 3,0 4,-1 1,-1 2,-2 2,-3 0,-1 -1,-2 -2,-3 -1,-1 -3,-1 -4,-1 0,0 0,0 0,0l-9 2 7 5c0,0 1,0 1,0 0,1 0,1 1,1 0,0 0,0 0,0l0 0z"/>
    <path class="fil2" d="M51 63c-2,0 -4,-1 -5,-2 -3,-4 -3,-8 0,-11 1,-1 3,-2 5,-2 2,0 4,1 5,2 3,3 3,7 0,11 -1,1 -3,2 -5,2zm0 -12c-1,0 -2,0 -3,1 -2,2 -2,5 0,6 1,1 2,1 3,1 1,0 2,0 3,-1 2,-1 2,-4 0,-6 -1,-1 -2,-1 -3,-1z"/>
    <path class="fil2" d="M45 56l-3 0c-1,0 -1,-1 -1,-1 0,-1 0,-2 1,-2l3 0c1,0 1,1 1,2 0,0 0,1 -1,1z"/>
    <path class="fil2" d="M50 51c0,0 -1,-1 -1,-1l0 -4c0,0 1,-1 1,-1 1,0 2,1 2,1l0 4c0,0 -1,1 -2,1z"/>
   </g>
  </g>
 </g>
</svg>
